<svg width="64" height="64" viewBox="0 0 64 64" fill="none" xmlns="http://www.w3.org/2000/svg">
<path d="M63.5 32C63.5 49.397 49.397 63.5 32 63.5C14.603 63.5 0.5 49.397 0.5 32C0.5 14.603 14.603 0.5 32 0.5C49.397 0.5 63.5 14.603 63.5 32Z" fill="white" stroke="#E5EAF4"/>
<path fill-rule="evenodd" clip-rule="evenodd" d="M19.76 44.24L44.2397 41.1882L39.6304 24.3319L21.2941 19.76L19.76 44.24ZM21.9864 41.8764L23.2087 22.371L37.9491 26.0463L41.6089 39.4301L21.9864 41.8764Z" fill="#44D5E9"/>
<path fill-rule="evenodd" clip-rule="evenodd" d="M19.7231 20.7754C19.7231 22.1315 20.8224 23.2309 22.1785 23.2309C23.5345 23.2309 24.6339 22.1315 24.6339 20.7754C24.6339 19.4193 23.5345 18.3199 22.1785 18.3199C20.8224 18.3199 19.7231 19.4193 19.7231 20.7754ZM36.56 24.9848C36.56 26.3409 37.6593 27.4403 39.0154 27.4403C40.3715 27.4403 41.4708 26.3409 41.4708 24.9848C41.4708 23.6287 40.3715 22.5293 39.0154 22.5293C37.6593 22.5293 36.56 23.6287 36.56 24.9848ZM20.7754 45.6809C19.4193 45.6809 18.32 44.5816 18.32 43.2254C18.32 41.8693 19.4193 40.77 20.7754 40.77C22.1315 40.77 23.2308 41.8693 23.2308 43.2254C23.2308 44.5816 22.1315 45.6809 20.7754 45.6809ZM40.7692 40.4192C40.7692 41.7753 41.8686 42.8747 43.2246 42.8747C44.5807 42.8747 45.68 41.7753 45.68 40.4192C45.68 39.0631 44.5807 37.9637 43.2246 37.9637C41.8686 37.9637 40.7692 39.0631 40.7692 40.4192Z" fill="#3B5AFB"/>
</svg>
