<svg width="64" height="64" viewBox="0 0 64 64" fill="none" xmlns="http://www.w3.org/2000/svg">
<path d="M63.5 32C63.5 49.397 49.397 63.5 32 63.5C14.603 63.5 0.5 49.397 0.5 32C0.5 14.603 14.603 0.5 32 0.5C49.397 0.5 63.5 14.603 63.5 32Z" fill="white" stroke="#E5EAF4"/>
<path d="M41.0913 44.1519C38.5611 46.0169 35.4281 47.12 32.0359 47.12C30.2917 47.12 28.6161 46.8284 27.0557 46.2915C27.029 46.2559 26.9986 46.2222 26.9645 46.191C25.668 45.0053 25.7762 42.3035 27.4149 41.1179C31.0069 38.519 30.6501 34.2651 26.3099 33.0424C22.9771 32.1034 21.7253 29.6662 23.3423 28.1485C23.7655 27.7536 23.9785 27.5536 24.1851 27.352C26.591 25.0039 26.3643 22.3955 23.4938 19.4858C25.9291 17.8411 28.8695 16.88 32.0359 16.88C34.5221 16.88 36.8691 17.4726 38.9415 18.5233C36.0095 18.9484 33.5173 19.8931 32.8309 21.1752C31.8973 22.919 32.5076 24.7048 34.5575 25.4871C37.1316 26.4695 37.5057 26.9851 37.4049 28.0857C37.3002 29.2298 36.49 29.9907 34.3252 29.9907C32.4047 29.9907 31.1494 31.8864 31.3282 33.8612C31.5252 36.0366 33.3419 37.2237 35.928 36.3517C40.0071 34.9763 42.1503 39.6879 41.0913 44.1519Z" fill="#44D5E9"/>
<path fill-rule="evenodd" clip-rule="evenodd" d="M42.6682 43.0435C43.0083 38.0945 40.0477 33.6075 35.4052 35.2054C33.7211 35.785 32.8434 35.1996 32.731 33.9322C32.6215 32.6976 33.3344 31.5987 34.2749 31.5987C37.1815 31.5987 38.5987 30.2402 38.7662 28.3725C38.9319 26.5257 38.1476 25.4224 35.0218 24.2047C33.812 23.7334 33.5308 22.8934 34.0611 21.8821C34.652 20.7555 36.6575 20.0311 40.8798 19.7609C44.6614 22.5486 47.12 27.0707 47.12 32.1753C47.12 36.4224 45.4181 40.2662 42.6682 43.0435ZM24.8292 45.6809C20.0961 43.0898 16.88 38.0135 16.88 32.1753C16.88 27.4255 19.0087 23.18 22.3512 20.3669C24.7359 22.7668 25.0857 24.5322 23.1934 26.4173C22.9996 26.6103 22.7997 26.802 22.376 27.2056C19.7955 29.678 21.6776 33.4184 25.9191 34.6381C28.9963 35.523 29.2227 38.2785 26.564 40.242C24.8942 41.4752 24.3013 43.7862 24.8292 45.6809Z" fill="#3B5AFB"/>
</svg>
