<svg width="64" height="64" viewBox="0 0 64 64" fill="none" xmlns="http://www.w3.org/2000/svg">
<path d="M63.5 32C63.5 49.397 49.397 63.5 32 63.5C14.603 63.5 0.5 49.397 0.5 32C0.5 14.603 14.603 0.5 32 0.5C49.397 0.5 63.5 14.603 63.5 32Z" fill="white" stroke="#E5EAF4"/>
<path d="M32 48C23.1634 48 16 40.8366 16 32C16 23.1634 23.1634 16 32 16C40.8366 16 48 23.1634 48 32C48 40.8366 40.8366 48 32 48Z" fill="#3B5AFB"/>
<path fill-rule="evenodd" clip-rule="evenodd" d="M35.3747 31.2789C36.0068 30.3452 36.0715 29.1387 35.5428 28.1429C35.014 27.147 33.9784 26.5247 32.8508 26.5253V25.7634C32.8508 25.3426 32.5097 25.0015 32.0889 25.0015C31.6681 25.0015 31.327 25.3426 31.327 25.7634V26.5253H29.8032V25.7634C29.8032 25.3426 29.4621 25.0015 29.0413 25.0015C28.6205 25.0015 28.2794 25.3426 28.2794 25.7634V26.5253H27.5175C27.0967 26.5253 26.7556 26.8664 26.7556 27.2872C26.7556 27.708 27.0967 28.0491 27.5175 28.0491H28.2794V35.6681H27.5175C27.0967 35.6681 26.7556 36.0092 26.7556 36.43C26.7556 36.8508 27.0967 37.1919 27.5175 37.1919H28.2794V37.9538C28.2794 38.3746 28.6205 38.7158 29.0413 38.7158C29.4621 38.7158 29.8032 38.3746 29.8032 37.9538V37.1919H31.327V37.9538C31.327 38.3746 31.6681 38.7158 32.0889 38.7158C32.5097 38.7158 32.8508 38.3746 32.8508 37.9538V37.1919H34.3746C35.8608 37.1958 37.1319 36.1245 37.3797 34.6591C37.6275 33.1938 36.7795 31.764 35.3747 31.279V31.2789ZM29.8032 28.0491H32.8508C33.6924 28.0491 34.3746 28.7313 34.3746 29.5729C34.3746 30.4145 33.6924 31.0967 32.8508 31.0967H29.8032V28.0491ZM29.8032 32.6205V35.6681H34.3746C35.2162 35.6681 35.8984 34.9859 35.8984 34.1443C35.8984 33.3027 35.2162 32.6205 34.3746 32.6205H29.8032Z" fill="white"/>
</svg>
