<svg width="64" height="64" viewBox="0 0 64 64" fill="none" xmlns="http://www.w3.org/2000/svg">
<path d="M63.5 32C63.5 49.397 49.397 63.5 32 63.5C14.603 63.5 0.5 49.397 0.5 32C0.5 14.603 14.603 0.5 32 0.5C49.397 0.5 63.5 14.603 63.5 32Z" fill="white" stroke="#E5EAF4"/>
<path d="M36.32 32.72V26.6C36.32 24.0153 34.5847 21.92 32 21.92C29.4153 21.92 27.68 24.0153 27.68 26.6V32.72H25.52V26.6C25.52 22.8224 28.2224 19.76 32 19.76C35.7776 19.76 38.48 22.8224 38.48 26.6V32.72H36.32Z" fill="#44D5E9"/>
<path d="M23.36 29.84H40.64C41.0376 29.84 41.36 30.1623 41.36 30.56V43.52C41.36 43.9176 41.0376 44.24 40.64 44.24H23.36C22.9624 44.24 22.64 43.9176 22.64 43.52V30.56C22.64 30.1623 22.9624 29.84 23.36 29.84Z" fill="#3B5AFB"/>
</svg>
