<svg width="64" height="64" viewBox="0 0 64 64" fill="none" xmlns="http://www.w3.org/2000/svg">
<path d="M63.5 32C63.5 49.397 49.397 63.5 32 63.5C14.603 63.5 0.5 49.397 0.5 32C0.5 14.603 14.603 0.5 32 0.5C49.397 0.5 63.5 14.603 63.5 32Z" fill="white" stroke="#E5EAF4"/>
<path fill-rule="evenodd" clip-rule="evenodd" d="M16.88 32C16.88 40.3506 23.6495 47.12 32 47.12C40.3506 47.12 47.12 40.3506 47.12 32C47.12 23.6495 40.3506 16.88 32 16.88C23.6495 16.88 16.88 23.6495 16.88 32ZM21.2 32C21.2 37.9647 26.0353 42.8 32 42.8C37.9647 42.8 42.8 37.9647 42.8 32C42.8 26.0353 37.9647 21.2 32 21.2C26.0353 21.2 21.2 26.0353 21.2 32Z" fill="#3B5AFB"/>
<path fill-rule="evenodd" clip-rule="evenodd" d="M41.36 32C41.36 37.1694 37.1694 41.36 32 41.36C26.8306 41.36 22.64 37.1694 22.64 32C22.64 26.8306 26.8306 22.64 32 22.64C37.1694 22.64 41.36 26.8306 41.36 32ZM34.8125 28.4H32.72V27.68C32.72 27.2824 32.3977 26.96 32 26.96C31.6024 26.96 31.28 27.2824 31.28 27.68V28.4H30.5801C29.3872 28.4 28.4201 29.3671 28.4201 30.56V31.2811C28.4201 32.474 29.3872 33.4411 30.5801 33.4411H33.44C33.8377 33.4411 34.16 33.7635 34.16 34.1611V34.88C34.16 35.2777 33.8377 35.6 33.44 35.6H29.8577C29.828 35.2398 29.5318 34.9515 29.162 34.9403C28.7645 34.9282 28.4325 35.2406 28.4204 35.6381L28.4004 36.2981C28.388 36.7042 28.7138 37.04 29.12 37.04H31.28V37.7474C31.28 38.145 31.6024 38.4674 32 38.4674C32.3977 38.4674 32.72 38.145 32.72 37.7474V37.04H33.44C34.633 37.04 35.6 36.073 35.6 34.88V34.1611C35.6 32.9682 34.633 32.0011 33.44 32.0011H30.5801C30.1825 32.0011 29.8601 31.6788 29.8601 31.2811V30.56C29.8601 30.1624 30.1825 29.84 30.5801 29.84H34.1139C34.192 30.1531 34.4752 30.3851 34.8125 30.3851C35.2101 30.3851 35.5325 30.0628 35.5325 29.6651V29.12C35.5325 28.7224 35.2101 28.4 34.8125 28.4Z" fill="#44D5E9"/>
</svg>
