<svg width="64" height="64" viewBox="0 0 64 64" fill="none" xmlns="http://www.w3.org/2000/svg">
<path d="M63.5 32C63.5 49.397 49.397 63.5 32 63.5C14.603 63.5 0.5 49.397 0.5 32C0.5 14.603 14.603 0.5 32 0.5C49.397 0.5 63.5 14.603 63.5 32Z" fill="white" stroke="#E5EAF4"/>
<path fill-rule="evenodd" clip-rule="evenodd" d="M36.68 24.5017V27.4073L41.6146 22.4728L41.72 22.2182V19.3126L36.7854 24.2472L36.68 24.5017ZM22.28 43.2473V40.3417L22.3854 40.0872L27.32 35.1526V38.0582L27.2146 38.3128L22.28 43.2473ZM29.48 38.0582L29.5854 38.3128L34.52 43.2473V40.3417L34.4146 40.0872L29.48 35.1526V38.0582ZM36.68 40.3417V43.2473L41.6146 38.3128L41.72 38.0582V35.1526L36.7854 40.0872L36.68 40.3417ZM29.5854 22.4728L29.48 22.2182V19.3126L34.4146 24.2472L34.52 24.5017V27.4073L29.5854 22.4728ZM22.28 24.5017V27.4073L27.2146 22.4728L27.32 22.2182V19.3126L22.3854 24.2472L22.28 24.5017Z" fill="#44D5E9"/>
<path fill-rule="evenodd" clip-rule="evenodd" d="M28.4 22.64C26.8094 22.64 25.52 21.3506 25.52 19.76C25.52 18.1694 26.8094 16.88 28.4 16.88C29.9906 16.88 31.28 18.1694 31.28 19.76C31.28 21.3506 29.9906 22.64 28.4 22.64ZM25.52 35.6C25.52 37.1906 26.8094 38.48 28.4 38.48C29.9906 38.48 31.28 37.1906 31.28 35.6C31.28 34.0094 29.9906 32.72 28.4 32.72C26.8094 32.72 25.52 34.0094 25.52 35.6ZM32.72 42.8C32.72 44.3906 34.0094 45.68 35.6 45.68C37.1906 45.68 38.48 44.3906 38.48 42.8C38.48 41.2094 37.1906 39.92 35.6 39.92C34.0094 39.92 32.72 41.2094 32.72 42.8ZM42.8 38.48C41.2094 38.48 39.92 37.1906 39.92 35.6C39.92 34.0094 41.2094 32.72 42.8 32.72C44.3906 32.72 45.68 34.0094 45.68 35.6C45.68 37.1906 44.3906 38.48 42.8 38.48ZM18.32 42.8C18.32 44.3906 19.6094 45.68 21.2 45.68C22.7906 45.68 24.08 44.3906 24.08 42.8C24.08 41.2094 22.7906 39.92 21.2 39.92C19.6094 39.92 18.32 41.2094 18.32 42.8ZM32.72 26.96C32.72 28.5506 34.0094 29.84 35.6 29.84C37.1906 29.84 38.48 28.5506 38.48 26.96C38.48 25.3694 37.1906 24.08 35.6 24.08C34.0094 24.08 32.72 25.3694 32.72 26.96ZM42.8 22.64C41.2094 22.64 39.92 21.3506 39.92 19.76C39.92 18.1694 41.2094 16.88 42.8 16.88C44.3906 16.88 45.68 18.1694 45.68 19.76C45.68 21.3506 44.3906 22.64 42.8 22.64ZM18.32 26.96C18.32 28.5506 19.6094 29.84 21.2 29.84C22.7906 29.84 24.08 28.5506 24.08 26.96C24.08 25.3694 22.7906 24.08 21.2 24.08C19.6094 24.08 18.32 25.3694 18.32 26.96Z" fill="#3B5AFB"/>
</svg>
